HIERARCHY
ROOT Hips
{
	OFFSET	0.00	0.00	0.00
	CHANNELS 6 Xposition Yposition Zposition Zrotation Xrotation Yrotation
	JOINT LeftUpLeg
	{
		OFFSET	 0.126116	-0.014019	-0.065224
		CHANNELS 3 Zrotation Xrotation Yrotation
		JOINT LeftLeg
		{
			OFFSET	 0.000000	 0.000000	 0.569914
			CHANNELS 3 Zrotation Xrotation Yrotation
			JOINT LeftFoot
			{
				OFFSET	 0.000000	 0.000000	 0.544423
				CHANNELS 3 Zrotation Xrotation Yrotation
				JOINT LeftToeBase
				{
					OFFSET	 0.000000	 0.000000	 0.207117
					CHANNELS 3 Zrotation Xrotation Yrotation
					End Site
					{
						OFFSET	 0.000000	 0.000000	 0.207117
					}
				}
			}
		}
	}
	JOINT RightUpLeg
	{
		OFFSET	-0.124023	-0.008373	-0.065224
		CHANNELS 3 Zrotation Xrotation Yrotation
		JOINT RightLeg
		{
			OFFSET	 0.000000	 0.000000	 0.570047
			CHANNELS 3 Zrotation Xrotation Yrotation
			JOINT RightFoot
			{
				OFFSET	 0.000000	 0.000000	 0.544354
				CHANNELS 3 Zrotation Xrotation Yrotation
				JOINT RightToeBase
				{
					OFFSET	 0.000000	 0.000000	 0.207540
					CHANNELS 3 Zrotation Xrotation Yrotation
					End Site
					{
						OFFSET	 0.000000	 0.000000	 0.207540
					}
				}
			}
		}
	}
	JOINT Spine
	{
		OFFSET	 0.000184	-0.007763	 0.117403
		CHANNELS 3 Zrotation Xrotation Yrotation
		JOINT Spine1
		{
			OFFSET	 0.000000	 0.000000	 0.137269
			CHANNELS 3 Zrotation Xrotation Yrotation
			JOINT Spine2
			{
				OFFSET	 0.000000	 0.000000	 0.156879
				CHANNELS 3 Zrotation Xrotation Yrotation
				JOINT LeftShoulder
				{
					OFFSET	 0.080501	-0.002496	 0.160144
					CHANNELS 3 Zrotation Xrotation Yrotation
					JOINT LeftArm
					{
						OFFSET	 0.000000	 0.000000	 0.164363
						CHANNELS 3 Zrotation Xrotation Yrotation
						JOINT LeftForeArm
						{
							OFFSET	 0.000000	 0.000000	 0.364576
							CHANNELS 3 Zrotation Xrotation Yrotation
							JOINT LeftHand
							{
								OFFSET	 0.000000	 0.000000	 0.360812
								CHANNELS 3 Zrotation Xrotation Yrotation
								JOINT LeftHandIndex1
								{
									OFFSET	 0.000000	 0.000000	 0.086006
									CHANNELS 3 Zrotation Xrotation Yrotation
									JOINT LeftHandIndex2
									{
										OFFSET	 0.000000	 0.000000	 0.047236
										CHANNELS 3 Zrotation Xrotation Yrotation
										JOINT LeftHandIndex3
										{
											OFFSET	-0.004284	-0.000551	 0.038166
											CHANNELS 3 Zrotation Xrotation Yrotation
											End Site
											{
												OFFSET	-0.004284	-0.000551	 0.038166
											}
										}
									}
								}
							}
						}
					}
				}
				JOINT Neck
				{
					OFFSET	 0.000000	 0.000000	 0.176489
					CHANNELS 3 Zrotation Xrotation Yrotation
					JOINT Head
					{
						OFFSET	 0.000000	-0.001747	 0.077940
						CHANNELS 3 Zrotation Xrotation Yrotation
						End Site
						{
							OFFSET	 0.000000	-0.001747	 0.077940
						}
					}
				}
				JOINT RightShoulder
				{
					OFFSET	-0.080363	 0.000306	 0.159706
					CHANNELS 3 Zrotation Xrotation Yrotation
					JOINT RightArm
					{
						OFFSET	 0.000000	 0.000000	 0.164196
						CHANNELS 3 Zrotation Xrotation Yrotation
						JOINT RightForeArm
						{
							OFFSET	 0.000000	 0.000000	 0.365611
							CHANNELS 3 Zrotation Xrotation Yrotation
							JOINT RightHand
							{
								OFFSET	 0.000000	 0.000000	 0.360648
								CHANNELS 3 Zrotation Xrotation Yrotation
								JOINT RightHandIndex1
								{
									OFFSET	 0.000000	 0.000000	 0.069977
									CHANNELS 3 Zrotation Xrotation Yrotation
									JOINT RightHandIndex2
									{
										OFFSET	 0.000000	 0.000000	 0.052305
										CHANNELS 3 Zrotation Xrotation Yrotation
										JOINT RightHandIndex3
										{
											OFFSET	 0.009002	-0.000782	 0.042196
											CHANNELS 3 Zrotation Xrotation Yrotation
											End Site
											{
												OFFSET	 0.009002	-0.000782	 0.042196
											}
										}
									}
								}
							}
						}
					}
				}
			}
		}
	}
}
MOTION
Frames:    12
Frame Time: 0.03333334
 1.049612	 7.250978	-0.083226	-15.466950	 4.085883	-1.029818	 9.490296	 18.076600	-176.287200	-5.782981	-11.624730	 1.534310	-11.279340	 89.039990	 14.723640	-2.279064	 41.585280	-0.318977	 4.450560	-45.739200	-179.831300	-0.282361	-42.440260	 3.578263	-176.437500	 84.359470	-178.889500	 2.392140	 26.514650	-0.040054	-2.163347	 1.962472	 2.721687	-2.903605	-5.648408	 0.896877	-3.018559	-9.638064	-1.126836	-91.776180	 78.527400	 180.000000	 42.372260	 62.220670	-57.671430	-6.437281	-4.588212	-26.795990	 5.037701	-2.114113	-5.363531	-3.812334	 37.924440	-2.927599	-2.450526	 36.184240	 0.754587	-1.378229	 35.397820	-2.634230	-0.255418	 4.997368	-2.309423	-0.613376	-23.559510	-2.713859	 89.782090	 78.203890	-180.000000	-30.458330	 73.147950	 34.025340	 3.872305	-6.492886	 19.731560	-14.382030	-3.282429	 9.539495	 6.437017	 35.671460	-0.771858	 2.830251	 35.756010	-7.813440	-2.350882	 35.473990	 5.254307
 1.041324	 7.221283	-0.083039	-14.859820	 4.214298	-1.238583	 9.099548	 19.297490	-176.446400	-5.355408	-11.624110	 1.539133	-3.460063	 88.589300	 6.930712	-2.254568	 43.407420	-0.371074	 4.833740	-45.427070	-179.212000	 0.177248	-42.076800	 4.013894	-175.616700	 85.526480	-179.228500	 2.377626	 29.862620	 0.032208	-2.312649	 1.815947	 2.626469	-3.059776	-5.721429	 0.775553	-3.088377	-9.601137	-1.189014	-91.776180	 78.527400	 180.000000	 43.430140	 62.689660	-58.673280	-6.226228	-4.572981	-25.370760	 5.412206	-2.128060	-5.359462	-3.812334	 37.924440	-2.927599	-2.450526	 36.184240	 0.754587	-1.378229	 35.397820	-2.634230	-0.381375	 5.190166	-2.294949	-0.706767	-23.771140	-2.691686	 89.782120	 78.203870	 180.000000	-29.667080	 73.493000	 32.798600	 3.856186	-6.411523	 19.194930	-14.583140	-3.290855	 9.533201	 6.437017	 35.671460	-0.771858	 2.830251	 35.756010	-7.813440	-2.350882	 35.473990	 5.254307
 1.023891	 7.163558	-0.086090	-13.965510	 4.496546	-1.468505	 8.586136	 21.584560	-177.118200	-4.440215	-11.618980	 1.577835	 3.521474	 86.594060	 0.204616	-2.185012	 47.638770	-0.503318	 5.333357	-44.299890	-178.450200	 1.504160	-43.249050	 5.301112	-174.523500	 87.957610	-179.324800	 2.381502	 29.076840	 0.014953	-2.596450	 1.431955	 2.257196	-3.300456	-5.936787	 0.509637	-3.121980	-9.539958	-1.300377	-91.776180	 78.527400	 180.000000	 44.936490	 64.187270	-59.567610	-6.294158	-4.495910	-22.726870	 6.111036	-2.163609	-5.348179	-3.812334	 37.924440	-2.927599	-2.450526	 36.184240	 0.754587	-1.378229	 35.397820	-2.634230	-0.600950	 5.032240	-2.200591	-0.835638	-23.528680	-2.486366	 89.782090	 78.203830	-180.000000	-27.930180	 74.204610	 30.362240	 4.013688	-6.300539	 18.407350	-14.925100	-3.306685	 9.520347	 6.437017	 35.671460	-0.771858	 2.830251	 35.756010	-7.813440	-2.350882	 35.473990	 5.254307
 1.001029	 7.092201	-0.084184	-13.405940	 4.421879	-1.355803	 8.518079	 24.195690	-178.496000	-3.328029	-11.605190	 1.677331	 5.068506	 81.252770	-0.572069	-2.077495	 52.492890	-0.680589	 4.254014	-42.559140	-179.178000	 6.035068	-45.766890	 8.394797	 6.451473	 87.628340	 1.865884	 2.370303	 31.200130	 0.062046	-2.774885	 0.953948	 1.255019	-3.321864	-6.270061	 0.195626	-2.994892	-9.648503	-1.306697	-91.776180	 78.527400	 180.000000	 45.223600	 66.856500	-58.100410	-7.122015	-4.356220	-20.038270	 6.842786	-2.211564	-5.331180	-3.812334	 37.924440	-2.927599	-2.450526	 36.184240	 0.754587	-1.378229	 35.397820	-2.634230	-0.857316	 4.797071	-2.002963	-0.960703	-23.015380	-2.066870	 89.782090	 78.203830	-180.000000	-25.458240	 74.927180	 26.965990	 4.327517	-6.188149	 17.774610	-15.152980	-3.317654	 9.511733	 6.437017	 35.671460	-0.771858	 2.830251	 35.756010	-7.813440	-2.350882	 35.473990	 5.254307
 0.976031	 7.018845	-0.077937	-13.253320	 4.306132	-1.361609	 8.929109	 26.558650	-179.630300	-3.298089	-11.605020	 1.678221	 4.069455	 71.629800	 1.142990	-2.070353	 52.766320	-0.691598	 3.523505	-40.617030	 179.952600	 6.162709	-47.963700	 8.506159	 5.092140	 85.751300	 2.606513	 2.376892	 30.003520	 0.035327	-2.406582	-0.019470	 0.720902	-2.947527	-6.414467	-0.048904	-3.069881	-9.496474	-1.022118	-91.776180	 78.527400	-180.000000	 43.410880	 69.871000	-53.835050	-8.881228	-4.112967	-18.334280	 6.946757	-2.244781	-5.320446	-3.812334	 37.924440	-2.927599	-2.450526	 36.184240	 0.754587	-1.378229	 35.397820	-2.634230	-0.974072	 4.707784	-1.872487	-0.968115	-22.489660	-1.674033	 89.782100	 78.203850	-180.000000	-24.217150	 75.385150	 25.225470	 4.480847	-6.132316	 17.417080	-15.312610	-3.326293	 9.505059	 6.437017	 35.671460	-0.771858	 2.830251	 35.756010	-7.813440	-2.350882	 35.473990	 5.254307
 0.947657	 6.940421	-0.067446	-12.904160	 3.813750	-1.432830	 8.544849	 27.487770	 179.005600	-4.145178	-14.103580	 1.310421	 2.880455	 58.141560	 1.144660	-2.089391	 52.026350	-0.662081	 2.877167	-36.532610	 179.119300	 5.747812	-49.070990	 8.049516	 5.044790	 86.232470	 1.965682	 2.393791	 26.036750	-0.050117	-2.240222	-0.237510	 0.525058	-2.717231	-6.293859	-0.184788	-2.702622	-8.794443	-0.939280	-91.776180	 78.527400	 180.000000	 39.195760	 71.913960	-45.780480	-10.314400	-3.843481	-18.045490	 6.254278	-2.252445	-5.322767	-3.812334	 37.924440	-2.927599	-2.450526	 36.184240	 0.754587	-1.378229	 35.397820	-2.634230	-0.971865	 4.622592	-1.836307	-0.975894	-20.985810	-1.460643	 89.782120	 78.203870	 180.000000	-24.195720	 75.432390	 24.874210	 4.379210	-6.162144	 17.503380	-15.322760	-3.326174	 9.504643	 6.437017	 35.671460	-0.771858	 2.830251	 35.756010	-7.813440	-2.350882	 35.473990	 5.254307
 0.919071	 6.880950	-0.054039	-11.859260	 2.511546	-0.248965	 7.025285	 14.910510	 175.044000	-2.192245	-41.130790	 0.423749	 1.424005	 53.542500	 0.820223	-2.257451	 43.203890	-0.365125	 1.504312	-30.922570	 177.235100	 6.171618	-48.387910	 7.427074	 6.356033	 88.574680	 0.398685	 2.400202	 23.812480	-0.096259	-2.716249	 0.597561	-0.716674	-2.907498	-5.995827	-0.600699	-2.374212	-8.341227	-1.079328	-91.776180	 78.527400	-180.000000	 36.361900	 71.999030	-40.076980	-9.852262	-3.864592	-18.597180	 6.060692	-2.244632	-5.326301	-3.812334	 37.924440	-2.927599	-2.450526	 36.184240	 0.754587	-1.378229	 35.397820	-2.634230	-1.215644	 4.552565	-1.614427	-1.223016	-19.471230	-1.703319	 89.782090	 78.203830	-180.000000	-25.898460	 74.975060	 26.671840	 4.411378	-6.355165	 18.747010	-14.793410	-3.304404	 9.523346	 6.437017	 35.671460	-0.771858	 2.830251	 35.756010	-7.813440	-2.350882	 35.473990	 5.254307
 0.887498	 6.812109	-0.044544	-10.091950	 1.523090	 2.700505	 6.374003	 4.766099	 169.599100	-1.010427	-59.275470	-0.858678	 0.659380	 51.240840	 1.185034	-2.306628	 39.226960	-0.255089	-0.116702	-24.045310	 173.527200	 6.547535	-45.526580	 6.019485	-174.348600	 89.284000	-179.371300	 2.403218	 22.398170	-0.125063	-3.405101	 1.160749	-3.827980	-3.159184	-5.830205	-1.421066	-2.707514	-8.745797	-1.049393	-91.776180	 78.527400	-180.000000	 34.814220	 71.252970	-36.982690	-8.682041	-4.191820	-20.076850	 6.361169	-2.211163	-5.333704	-3.812334	 37.924440	-2.927599	-2.450526	 36.184240	 0.754587	-1.378229	 35.397820	-2.634230	-1.810710	 4.688361	-1.225921	-1.749844	-18.808340	-2.366785	 89.782110	 78.203870	 180.000000	-29.302330	 73.766000	 31.054430	 4.344841	-6.738230	 21.175260	-13.961580	-3.262094	 9.553659	 6.437017	 35.671460	-0.771858	 2.830251	 35.756010	-7.813440	-2.350882	 35.473990	 5.254307
 0.861406	 6.751531	-0.041145	-8.775826	 0.820294	 3.841418	 3.979393	-3.785523	 168.212800	 3.397763	-70.078080	 1.046438	 1.786668	 58.175050	 0.498972	-2.288244	 40.840680	-0.298400	-0.623052	-18.663000	 172.119200	 6.238579	-43.145370	 4.875877	-174.670900	 87.642670	-179.578800	 2.405189	 21.166000	-0.149859	-3.381700	 1.464703	-4.938945	-3.175442	-5.617170	-1.664653	-3.274643	-8.919697	-0.839733	-91.776180	 78.527400	 180.000000	 32.618690	 70.638050	-34.319900	-9.061988	-4.368601	-22.561390	 5.849571	-2.163491	-5.349157	-3.812334	 37.924440	-2.927599	-2.450526	 36.184240	 0.754587	-1.378229	 35.397820	-2.634230	-2.425950	 4.877291	-0.732605	-2.293275	-18.688810	-3.352226	 89.782120	 78.203870	 180.000000	-32.187080	 71.998750	 35.462800	 4.249433	-7.088587	 23.945960	-13.035490	-3.225450	 9.578126	 6.437017	 35.671460	-0.771858	 2.830251	 35.756010	-7.813440	-2.350882	 35.473990	 5.254307
 0.838059	 6.695020	-0.041982	-8.025290	 0.218830	 3.997160	 1.573143	-11.744580	 168.971900	 5.844138	-75.224610	 2.027840	 1.817975	 67.295240	 0.062611	-2.283436	 41.235540	-0.309262	-0.557723	-14.515580	 171.595600	 5.884559	-42.423660	 4.352435	-175.089100	 85.905570	-179.469900	 2.405484	 20.940900	-0.154361	-2.855384	 1.820316	-4.957912	-2.901514	-5.440118	-1.509177	-3.656193	-9.008579	-0.524645	-91.776180	 78.527400	 180.000000	 29.890880	 70.334700	-31.555890	-10.503640	-4.371130	-25.749710	 4.844022	-2.122129	-5.362003	-3.812334	 37.924440	-2.927599	-2.450526	 36.184240	 0.754587	-1.378229	 35.397820	-2.634230	-2.874307	 4.933054	-0.339713	-2.715972	-18.650410	-4.303691	 89.782120	 78.203870	 180.000000	-34.297830	 69.804390	 39.614060	 3.998502	-7.395342	 26.719590	-12.223940	-3.202502	 9.591948	 6.437017	 35.671460	-0.771858	 2.830251	 35.756010	-7.813440	-2.350882	 35.473990	 5.254307
 0.817958	 6.640925	-0.045882	-7.734254	 0.064005	 4.383823	-0.023719	-19.017050	 170.005800	-0.209164	-75.786370	-4.437786	 0.065355	 76.074760	-0.379717	-2.267035	 42.507470	-0.345017	-0.611304	-11.423760	 171.041500	 5.611973	-42.729690	 3.948289	-175.645600	 84.154530	-179.305400	 2.403892	 22.018580	-0.132730	-2.321725	 2.065593	-5.516163	-2.442916	-5.442192	-1.262808	-3.785263	-9.367513	-0.191119	-91.776180	 78.527400	-180.000000	 27.860670	 70.319290	-29.386540	-11.703450	-4.380146	-28.700160	 4.129099	-2.097900	-5.368201	-3.812334	 37.924440	-2.927599	-2.450526	 36.184240	 0.754587	-1.378229	 35.397820	-2.634230	-3.125362	 4.996181	-0.104521	-2.938058	-18.468640	-4.766041	 89.782140	 78.203830	 180.000000	-35.215970	 67.473270	 42.746510	 3.647951	-7.626628	 29.084070	-11.608340	-3.206499	 9.591010	 6.437017	 35.671460	-0.771858	 2.830251	 35.756010	-7.813440	-2.350882	 35.473990	 5.254307
 0.799266	 6.587592	-0.051443	-7.707677	 0.249427	 4.822483	-1.166272	-25.287480	 171.178100	-5.742049	-71.749360	-9.856332	-1.964839	 81.817200	-0.824245	-2.264278	 42.711380	-0.350864	-0.620347	-8.703470	 170.306400	 5.351216	-43.062210	 3.550339	-176.442900	 82.379190	-178.901100	 2.404995	 21.303510	-0.147106	-2.044357	 2.159496	-6.134719	-2.119852	-5.510546	-1.043856	-3.731205	-9.701686	-0.015086	-91.776180	 78.527400	 180.000000	 26.690520	 70.398690	-28.013770	-12.259150	-4.534813	-31.062420	 3.939987	-2.101662	-5.367674	-3.812334	 37.924440	-2.927599	-2.450526	 36.184240	 0.754587	-1.378229	 35.397820	-2.634230	-3.177390	 5.002284	-0.058325	-2.960979	-18.200500	-4.754527	 89.782120	 78.203870	 180.000000	-35.363570	 65.251570	 45.223350	 3.320607	-7.838357	 31.102440	-11.191960	-3.193041	 9.598085	 6.437017	 35.671460	-0.771858	 2.830251	 35.756010	-7.813440	-2.350882	 35.473990	 5.254307
